<svg width="232" height="89" viewBox="0 0 232 89" fill="none" xmlns="http://www.w3.org/2000/svg">
<path d="M147.112 41.8C147.069 40.008 146.6 38.387 145.704 36.936C144.831 35.5075 143.594 34.3369 142.12 33.544C140.627 32.734 138.984 32.328 137.192 32.328C134.973 32.328 132.947 32.861 131.112 33.9281C129.277 34.952 127.827 36.403 126.76 38.28C125.693 40.157 125.16 42.29 125.16 44.68V58.76C125.16 59.443 124.947 59.9971 124.52 60.424C124.093 60.808 123.517 61 122.792 61C122.067 61 121.491 60.808 121.064 60.424C120.637 59.9971 120.424 59.443 120.424 58.76V42.888C120.424 41.011 120.04 39.261 119.272 37.64C118.547 36.019 117.459 34.76 116.008 33.864C114.429 32.883 112.595 32.392 110.504 32.392C108.413 32.392 106.451 32.904 104.616 33.9281C102.781 34.909 101.309 36.318 100.2 38.152C99.09 39.987 98.536 42.056 98.536 44.36V58.8241C98.536 59.507 98.301 60.0401 97.832 60.424C97.405 60.808 96.872 61 96.232 61C95.592 61 95.037 60.808 94.568 60.424C94.098 60.0401 93.864 59.507 93.864 58.8241V30.856C93.864 30.259 94.077 29.746 94.504 29.32C94.974 28.85 95.528 28.616 96.168 28.616C96.851 28.616 97.384 28.829 97.768 29.256C98.195 29.683 98.408 30.216 98.408 30.856V34.568C99.645 32.349 101.309 30.707 103.4 29.64C105.491 28.53 107.837 27.976 110.44 27.976C113.384 27.976 116.051 28.701 118.44 30.152C120.872 31.56 122.536 33.629 123.432 36.36C124.541 33.63 126.333 31.56 128.808 30.152C131.283 28.702 134.013 27.976 137 27.976C139.517 27.976 141.907 28.531 144.168 29.64C146.39 30.6734 148.291 32.2875 149.672 34.312C151.08 36.36 151.784 38.792 151.784 41.608V58.76C151.784 59.443 151.571 59.9971 151.144 60.424C150.717 60.808 150.141 61 149.416 61C148.691 61 148.115 60.808 147.688 60.424C147.304 60.0401 147.112 59.485 147.112 58.76V41.8ZM189.887 44.616C189.887 46.579 188.842 47.56 186.751 47.56H161.471C161.77 49.352 162.431 50.995 163.455 52.488C164.522 53.938 165.887 55.112 167.551 56.008C169.258 56.904 171.135 57.3521 173.183 57.3521C176.511 57.3521 179.348 56.4561 181.695 54.6641C182.178 54.2059 182.821 53.9534 183.487 53.96C184.084 53.96 184.596 54.1521 185.023 54.536C185.45 54.92 185.663 55.389 185.663 55.944C185.663 56.584 185.364 57.203 184.767 57.8C183.359 59.123 181.652 60.104 179.647 60.744C177.642 61.384 175.551 61.683 173.375 61.64C170.09 61.64 167.167 60.9151 164.607 59.4641C162.09 57.9711 160.148 55.944 158.783 53.384C157.418 50.781 156.735 47.88 156.735 44.68C156.735 41.224 157.503 38.237 159.039 35.72C160.575 33.203 162.58 31.283 165.055 29.96C167.518 28.6508 170.266 27.9694 173.055 27.976C176.042 27.976 178.794 28.573 181.311 29.768C183.871 30.963 185.919 32.818 187.455 35.336C189.034 37.811 189.844 40.904 189.887 44.616ZM185.407 43.656C185.194 41.224 184.49 39.1551 183.295 37.448C182.1 35.741 180.607 34.4611 178.815 33.6081C177.066 32.7551 175.252 32.328 173.375 32.328C170.175 32.328 167.423 33.309 165.119 35.272C162.815 37.192 161.535 39.987 161.279 43.656H185.407ZM221.576 42.312C221.576 40.392 221.107 38.685 220.168 37.192C219.303 35.6862 218.041 34.4466 216.52 33.6081C215.041 32.7584 213.362 32.3166 211.656 32.328C209.608 32.328 207.645 32.861 205.768 33.9281C203.933 34.952 202.44 36.403 201.288 38.28C200.179 40.115 199.624 42.163 199.624 44.424V58.76C199.624 59.485 199.411 60.0401 198.984 60.424C198.6 60.808 198.045 61 197.32 61C196.595 61 195.997 60.808 195.528 60.424C195.101 59.9971 194.888 59.443 194.888 58.76V30.856C194.888 30.173 195.101 29.64 195.528 29.256C195.979 28.8362 196.576 28.6069 197.192 28.616C197.832 28.616 198.365 28.829 198.792 29.256C199.261 29.64 199.496 30.195 199.496 30.92V34.632C200.605 32.413 202.248 30.749 204.424 29.64C206.643 28.53 209.075 27.976 211.72 27.976C214.237 27.976 216.605 28.552 218.824 29.704C221.043 30.814 222.835 32.456 224.2 34.632C225.565 36.808 226.248 39.368 226.248 42.312V58.76C226.248 59.485 226.035 60.0401 225.608 60.424C225.224 60.808 224.669 61 223.944 61C223.219 61 222.643 60.808 222.216 60.424C221.789 59.9971 221.576 59.443 221.576 58.76V42.312ZM8.512 20.808C8.512 21.491 8.277 22.024 7.808 22.408C7.338 22.792 6.763 22.984 6.08 22.984C5.44 22.984 4.885 22.792 4.416 22.408C3.946 22.024 3.712 21.491 3.712 20.808V20.488C3.712 19.805 3.947 19.272 4.416 18.888C4.89592 18.4732 5.50965 18.2459 6.144 18.248C6.784 18.248 7.339 18.461 7.808 18.888C8.278 19.272 8.512 19.805 8.512 20.488V20.808ZM3.776 30.728C3.776 30.045 4.011 29.533 4.48 29.192C4.95 28.808 5.504 28.616 6.144 28.616C6.784 28.616 7.317 28.808 7.744 29.192C8.214 29.533 8.448 30.024 8.448 30.664V58.8881C8.448 59.571 8.213 60.104 7.744 60.488C7.317 60.829 6.784 61 6.144 61C5.504 61 4.949 60.83 4.48 60.488C4.01 60.104 3.776 59.571 3.776 58.8881V30.728ZM28.553 28.04C30.773 28.04 32.82 28.488 34.697 29.384C36.575 30.28 37.983 31.56 38.921 33.224V20.488C38.921 19.805 39.156 19.272 39.626 18.888C40.0772 18.4685 40.6729 18.2392 41.289 18.248C41.929 18.248 42.463 18.461 42.889 18.888C43.359 19.272 43.593 19.805 43.593 20.488V58.76C43.593 59.443 43.38 59.9971 42.953 60.424C42.527 60.808 41.951 61 41.225 61C39.775 61 39.05 60.253 39.05 58.76V56.1361C38.026 58.0131 36.554 59.4001 34.634 60.2961C32.7317 61.1881 30.6551 61.6472 28.554 61.64C25.524 61.64 22.772 60.979 20.298 59.656C17.823 58.291 15.838 56.3281 14.346 53.7681C12.895 51.208 12.169 48.136 12.169 44.552C12.169 42.12 12.703 39.645 13.769 37.128C14.879 34.568 16.649 32.413 19.081 30.664C21.556 28.914 24.714 28.04 28.554 28.04H28.553ZM28.937 57.224C31.797 57.0541 34.164 56.0941 36.041 54.3441C37.961 52.5941 38.921 50.269 38.921 47.368V42.312C38.921 39.539 37.961 37.2351 36.041 35.4C34.121 33.565 31.69 32.5841 28.746 32.456C25.802 32.456 23.433 33.117 21.642 34.44C19.892 35.72 18.655 37.277 17.93 39.112C17.204 40.947 16.842 42.696 16.842 44.36C16.842 47.432 17.482 49.928 18.762 51.848C20.042 53.768 21.599 55.155 23.433 56.008C25.311 56.8181 27.145 57.224 28.938 57.224H28.937ZM57.833 76.6771C57.788 76.7621 57.723 76.805 57.638 76.805C57.573 76.805 57.488 76.76 57.383 76.67C57.2556 76.5543 57.1173 76.4512 56.97 76.362C56.763 76.232 56.5415 76.1266 56.31 76.048C56.05 75.952 55.728 75.905 55.343 75.905C54.9959 75.8988 54.6504 75.9546 54.323 76.07C54.033 76.18 53.788 76.33 53.588 76.52C53.393 76.71 53.243 76.93 53.138 77.18C53.038 77.4303 52.987 77.6975 52.988 77.9671C52.988 78.3271 53.063 78.625 53.213 78.8601C53.368 79.0951 53.57 79.295 53.82 79.46C54.07 79.625 54.353 79.765 54.668 79.88C54.988 79.99 55.315 80.1 55.65 80.21C55.985 80.32 56.31 80.4431 56.625 80.5781C56.945 80.7081 57.23 80.872 57.48 81.073C57.73 81.273 57.93 81.5201 58.08 81.8151C58.235 82.1051 58.313 82.468 58.313 82.903C58.313 83.347 58.235 83.767 58.08 84.163C57.93 84.553 57.71 84.893 57.42 85.183C57.13 85.473 56.775 85.703 56.355 85.873C55.935 86.037 55.455 86.12 54.915 86.12C54.215 86.12 53.613 85.997 53.108 85.752C52.6029 85.5022 52.1517 85.1556 51.78 84.732L51.99 84.402C52.05 84.327 52.12 84.29 52.2 84.29C52.245 84.29 52.303 84.32 52.373 84.38C52.443 84.44 52.528 84.5151 52.628 84.605C52.728 84.69 52.848 84.785 52.988 84.89C53.128 84.99 53.29 85.0851 53.475 85.175C53.9311 85.3845 54.4281 85.4897 54.93 85.483C55.35 85.483 55.725 85.42 56.055 85.295C56.385 85.165 56.663 84.99 56.888 84.77C57.118 84.55 57.293 84.29 57.413 83.99C57.533 83.685 57.593 83.36 57.593 83.015C57.593 82.64 57.515 82.3321 57.36 82.0931C57.2093 81.8471 57.004 81.639 56.76 81.4851C56.4935 81.3122 56.2062 81.1738 55.905 81.073C55.59 80.963 55.265 80.855 54.93 80.75C54.598 80.6459 54.2704 80.5281 53.948 80.3971C53.6432 80.2732 53.3577 80.1065 53.1 79.9021C52.8478 79.6941 52.6412 79.4364 52.493 79.145C52.343 78.84 52.268 78.46 52.268 78.005C52.268 77.65 52.335 77.308 52.47 76.978C52.605 76.648 52.803 76.3581 53.063 76.1081C53.323 75.8531 53.643 75.6501 54.023 75.5C54.4413 75.3388 54.8868 75.2597 55.335 75.267C55.885 75.267 56.378 75.355 56.813 75.53C57.253 75.705 57.653 75.972 58.013 76.3321L57.833 76.6781V76.6771ZM74.01 81.627V86H73.244V81.627L69.314 75.3871H69.99C70.06 75.3871 70.117 75.4051 70.162 75.4401C70.2105 75.4745 70.2491 75.521 70.274 75.575L73.312 80.45C73.377 80.565 73.437 80.6771 73.492 80.7871C73.547 80.8921 73.594 80.997 73.634 81.103C73.674 80.998 73.719 80.8931 73.769 80.7871C73.819 80.6771 73.877 80.565 73.942 80.45L76.98 75.575C77.004 75.52 77.04 75.4751 77.085 75.4401C77.1381 75.4043 77.201 75.3861 77.265 75.3881H77.939L74.009 81.628L74.01 81.627ZM94.742 76.6771C94.697 76.7621 94.632 76.805 94.547 76.805C94.482 76.805 94.397 76.76 94.292 76.67C94.1646 76.5543 94.0263 76.4512 93.879 76.362C93.672 76.232 93.4505 76.1266 93.219 76.048C92.959 75.952 92.637 75.905 92.252 75.905C91.9049 75.8988 91.5594 75.9546 91.232 76.07C90.942 76.18 90.697 76.33 90.497 76.52C90.302 76.71 90.152 76.93 90.047 77.18C89.947 77.4303 89.896 77.6975 89.897 77.9671C89.897 78.3271 89.972 78.625 90.122 78.8601C90.277 79.0951 90.479 79.295 90.729 79.46C90.979 79.625 91.262 79.765 91.577 79.88C91.897 79.99 92.224 80.1 92.559 80.21C92.894 80.32 93.219 80.4431 93.534 80.5781C93.854 80.7081 94.139 80.872 94.389 81.073C94.639 81.273 94.839 81.5201 94.989 81.8151C95.144 82.1051 95.222 82.468 95.222 82.903C95.222 83.347 95.144 83.767 94.989 84.163C94.839 84.553 94.619 84.893 94.329 85.183C94.039 85.473 93.684 85.703 93.264 85.873C92.844 86.037 92.364 86.12 91.824 86.12C91.124 86.12 90.522 85.997 90.017 85.752C89.5119 85.5022 89.0607 85.1556 88.689 84.732L88.899 84.402C88.959 84.327 89.029 84.29 89.109 84.29C89.154 84.29 89.212 84.32 89.282 84.38C89.352 84.44 89.437 84.5151 89.537 84.605C89.637 84.69 89.757 84.785 89.897 84.89C90.037 84.99 90.199 85.0851 90.384 85.175C90.8401 85.3845 91.3371 85.4897 91.839 85.483C92.259 85.483 92.634 85.42 92.964 85.295C93.294 85.165 93.572 84.99 93.797 84.77C94.027 84.55 94.202 84.29 94.322 83.99C94.442 83.685 94.502 83.36 94.502 83.015C94.502 82.64 94.424 82.3321 94.269 82.0931C94.1183 81.8471 93.913 81.639 93.669 81.4851C93.4025 81.3122 93.1152 81.1738 92.814 81.073C92.499 80.963 92.174 80.855 91.839 80.75C91.507 80.6459 91.1794 80.5281 90.857 80.3971C90.5522 80.2732 90.2667 80.1065 90.009 79.9021C89.7568 79.6941 89.5502 79.4364 89.402 79.145C89.252 78.84 89.177 78.46 89.177 78.005C89.177 77.65 89.244 77.308 89.379 76.978C89.514 76.648 89.712 76.3581 89.972 76.1081C90.232 75.8531 90.552 75.6501 90.932 75.5C91.3503 75.3388 91.7958 75.2597 92.244 75.267C92.794 75.267 93.287 75.355 93.722 75.53C94.162 75.705 94.562 75.972 94.922 76.3321L94.742 76.6781V76.6771ZM114.717 76.0401H110.989V86H110.217V76.0401H106.467V75.3871H114.717V76.0401ZM133.078 85.362L133.063 86H126.703V75.3881H133.063V76.0251H127.476V80.3151H132.126V80.9381H127.476V85.362H133.078ZM156.089 75.3881V86H155.422V76.9551C155.422 76.8251 155.429 76.688 155.444 76.543L151.267 83.96C151.197 84.09 151.097 84.155 150.967 84.155H150.847C150.717 84.155 150.617 84.09 150.547 83.96L146.257 76.528C146.272 76.6781 146.279 76.8201 146.279 76.9551V86H145.604V75.3881H146.137C146.207 75.3881 146.262 75.3951 146.302 75.4101C146.342 75.4251 146.382 75.465 146.422 75.53L150.704 82.91C150.779 83.05 150.844 83.2 150.899 83.36C150.958 83.2028 151.028 83.0501 151.109 82.903L155.272 75.53C155.312 75.465 155.352 75.4251 155.392 75.4101C155.448 75.3937 155.506 75.3863 155.564 75.3881H156.089ZM174.58 76.6781C174.535 76.7631 174.47 76.805 174.385 76.805C174.32 76.805 174.235 76.76 174.13 76.67C174.003 76.5543 173.864 76.4512 173.717 76.362C173.51 76.232 173.289 76.1266 173.057 76.048C172.797 75.952 172.475 75.905 172.09 75.905C171.743 75.8988 171.397 75.9546 171.07 76.07C170.78 76.18 170.535 76.33 170.335 76.52C170.14 76.71 169.99 76.93 169.885 77.18C169.785 77.4303 169.734 77.6975 169.735 77.9671C169.735 78.3271 169.81 78.625 169.96 78.8601C170.115 79.0951 170.317 79.295 170.567 79.46C170.817 79.625 171.1 79.765 171.415 79.88C171.735 79.99 172.062 80.1 172.397 80.21C172.732 80.32 173.057 80.4431 173.372 80.5781C173.692 80.7081 173.977 80.872 174.227 81.073C174.477 81.273 174.677 81.5201 174.827 81.8151C174.982 82.1051 175.06 82.468 175.06 82.903C175.06 83.347 174.982 83.767 174.827 84.163C174.677 84.553 174.457 84.893 174.167 85.183C173.877 85.473 173.522 85.703 173.102 85.873C172.682 86.037 172.202 86.12 171.662 86.12C170.962 86.12 170.36 85.997 169.855 85.752C169.35 85.5021 168.899 85.1556 168.527 84.732L168.737 84.402C168.797 84.327 168.867 84.29 168.947 84.29C168.992 84.29 169.05 84.32 169.12 84.38C169.19 84.44 169.275 84.5151 169.375 84.605C169.475 84.69 169.595 84.785 169.735 84.89C169.875 84.99 170.037 85.0851 170.222 85.175C170.678 85.3846 171.175 85.4898 171.677 85.483C172.097 85.483 172.472 85.42 172.802 85.295C173.132 85.165 173.41 84.99 173.635 84.77C173.865 84.55 174.04 84.29 174.16 83.99C174.28 83.685 174.34 83.36 174.34 83.015C174.34 82.64 174.262 82.3321 174.107 82.0931C173.956 81.8471 173.751 81.639 173.507 81.4851C173.241 81.3122 172.953 81.1738 172.652 81.073C172.337 80.963 172.012 80.855 171.677 80.75C171.345 80.6459 171.017 80.5281 170.695 80.3971C170.39 80.2732 170.105 80.1065 169.847 79.9021C169.595 79.6941 169.388 79.4364 169.24 79.145C169.09 78.84 169.015 78.46 169.015 78.005C169.015 77.65 169.082 77.308 169.217 76.978C169.352 76.648 169.55 76.3581 169.81 76.1081C170.07 75.8531 170.39 75.6501 170.77 75.5C171.188 75.3388 171.634 75.2597 172.082 75.267C172.632 75.267 173.125 75.355 173.56 75.53C174 75.705 174.4 75.972 174.76 76.3321L174.58 76.6781Z" fill="white"/>
<path d="M184 79.5H212M13 79.5H41" stroke="white"/>
<path d="M69.5 23L48 61H91L69.5 23ZM86.29 58.342H71.855L79.073 45.585L86.29 58.342ZM77.47 42.752L69.5 56.838L61.531 42.752L69.501 28.668L77.469 42.754L77.47 42.752ZM59.93 45.586L67.146 58.341H52.711L59.929 45.586H59.93Z" fill="white"/>
</svg>
